<svg id="Layer_1" data-name="Layer 1" xmlns="http://www.w3.org/2000/svg" viewBox="0 0 49.42 38.54">
  <g>
    <path d="M25.94,28.2a10,10,0,0,0,2.57-2.81,8.45,8.45,0,0,0,.9-4.13,9.79,9.79,0,0,0-2.79-7.08,9.25,9.25,0,0,0-6.86-2.87,9.25,9.25,0,0,0-6.86,2.87,9.81,9.81,0,0,0-2.79,7.08A8.64,8.64,0,0,0,11,25.38a9.78,9.78,0,0,0,2.58,2.82,9.6,9.6,0,0,0-2.28,1.63,11,11,0,0,0-3,8.12,11.86,11.86,0,0,0,3.17,8.63,11.31,11.31,0,0,0,8.44,3.27,10.85,10.85,0,0,0,8.21-3.32A12,12,0,0,0,31.22,38a10.87,10.87,0,0,0-3-8.13A11.12,11.12,0,0,0,25.94,28.2Zm-6,2.59a6.28,6.28,0,0,1,4.84,1.93,7.25,7.25,0,0,1,1.84,5.17,7.29,7.29,0,0,1-1.9,5.23,6.45,6.45,0,0,1-4.95,2,6.48,6.48,0,0,1-5-2,7.29,7.29,0,0,1-1.89-5.23,7.16,7.16,0,0,1,1.85-5.22A6.9,6.9,0,0,1,19.93,30.79Zm3.54-6.28a5.34,5.34,0,0,1-3.71,1.27A5.42,5.42,0,0,1,16,24.51a4.16,4.16,0,0,1-1.39-3.25,5.07,5.07,0,0,1,1.44-3.74,4.9,4.9,0,0,1,3.68-1.46,4.9,4.9,0,0,1,3.65,1.44,5,5,0,0,1,1.43,3.71A4.22,4.22,0,0,1,23.47,24.51Z" transform="translate(-8.27 -11.31)"/>
    <path d="M54.64,16.43c-2.08-3.4-5-5.12-8.53-5.12-3.76,0-6.75,1.8-8.9,5.34S34,24.87,34,30.82s1,10.5,3,13.85,5,5.18,8.61,5.18S52.4,48,54.54,44.41,57.68,36,57.68,29.92C57.68,24.29,56.66,19.75,54.64,16.43ZM45.74,45c-2.23,0-3.91-1.15-5.14-3.51s-1.91-6-1.91-10.46v-.78c.18-9.31,2.65-14,7.34-14,2.25,0,3.94,1.12,5.17,3.43S53.12,25.52,53.12,30c0,4.72-.69,8.46-2,11.12S48,45,45.74,45Z" transform="translate(-8.27 -11.31)"/>
  </g>
</svg>