<svg id="Layer_1" data-name="Layer 1" xmlns="http://www.w3.org/2000/svg" viewBox="0 0 47.98 46.37">
  <defs>
    <style>
      .cls-1 {
        fill: none;
        stroke: #000;
        stroke-miterlimit: 10;
        stroke-width: 10px;
      }
    </style>
  </defs>
  <path class="cls-1" d="M123.36,104.61" transform="translate(-118.81 -103.63)"/>
  <path d="M164.21,119.28l-12.64-.47a2.14,2.14,0,0,1-1.92-1.41l-4.35-12a2.66,2.66,0,0,0-5,0l-4.35,12a2.11,2.11,0,0,1-1.92,1.41l-12.64.47a2.7,2.7,0,0,0-1.55,4.81l10,7.89a2.17,2.17,0,0,1,.73,2.29l-3.46,12.29a2.67,2.67,0,0,0,4.05,3l10.5-7.13a2.15,2.15,0,0,1,2.38,0l10.5,7.13a2.67,2.67,0,0,0,4-3l-3.47-12.29a2.19,2.19,0,0,1,.74-2.29l9.95-7.89A2.7,2.7,0,0,0,164.21,119.28Z" transform="translate(-118.81 -103.63)"/>
</svg>
