<?xml version="1.0" encoding="utf-8"?>
<!-- Generator: Adobe Illustrator 26.0.2, SVG Export Plug-In . SVG Version: 6.00 Build 0)  -->
<svg version="1.1" id="Layer_1" xmlns="http://www.w3.org/2000/svg" xmlns:xlink="http://www.w3.org/1999/xlink" x="0px" y="0px"
	 viewBox="0 0 89.9 70.7" style="enable-background:new 0 0 89.9 70.7;" xml:space="preserve">
<path d="M14.1,21.4c-2.1-1-4.1-2.1-6.1-3.1c1,3.8,2.6,7.4,4.6,10.7c1.5,2.3,3.2,4.5,5.2,6.4c-2,1.9-3.7,4.1-5.2,6.4
	C10.6,45.1,9,48.7,8,52.5c2-1.1,4-2.1,6.1-3.1c14-6.8,28.9-11.6,44.2-14C42.9,33,28,28.2,14.1,21.4z"/>
<path d="M85.9,35.4C86,35.4,86,35.4,85.9,35.4L85.9,35.4c-2.1-0.2-46.3-5.5-62.5-32.4c0,0,0.4,23.6,11.7,32.4
	c-11.3,8.8-11.7,32.4-11.7,32.4C39.6,40.8,83.8,35.6,85.9,35.4L85.9,35.4C86,35.4,86,35.4,85.9,35.4z"/>
</svg>
