<?xml version="1.0" encoding="UTF-8" standalone="no"?>
<svg
   xmlns:dc="http://purl.org/dc/elements/1.1/"
   xmlns:cc="http://creativecommons.org/ns#"
   xmlns:rdf="http://www.w3.org/1999/02/22-rdf-syntax-ns#"
   xmlns:svg="http://www.w3.org/2000/svg"
   xmlns="http://www.w3.org/2000/svg"
   xmlns:xlink="http://www.w3.org/1999/xlink"
   viewBox="0 0 216 336"
   version="1.1"
   id="svg995">
  <metadata
     id="metadata999">
    <rdf:RDF>
      <cc:Work
         rdf:about="">
        <dc:format>image/svg+xml</dc:format>
        <dc:type
           rdf:resource="http://purl.org/dc/dcmitype/StillImage" />
        <dc:title></dc:title>
      </cc:Work>
    </rdf:RDF>
  </metadata>
  <defs
     id="defs950">
    <style
       id="style917">
      .cls-1 {
        isolation: isolate;
      }

      .cls-2 {
        fill: #17871f;
      }

      .cls-3 {
        mix-blend-mode: multiply;
        opacity: 0.74;
      }

      .cls-10, .cls-12, .cls-4, .cls-8 {
        fill: none;
        stroke-miterlimit: 10;
      }

      .cls-4 {
        stroke-width: 4px;
        stroke: url(#linear-gradient);
      }

      .cls-5 {
        fill: url(#linear-gradient-2);
      }

      .cls-6 {
        fill: url(#linear-gradient-3);
      }

      .cls-7 {
        fill: url(#linear-gradient-4);
      }

      .cls-8 {
        stroke: url(#linear-gradient-5);
      }

      .cls-9 {
        fill: url(#linear-gradient-6);
      }

      .cls-10 {
        stroke: url(#linear-gradient-7);
      }

      .cls-11 {
        fill: url(#linear-gradient-8);
      }

      .cls-12 {
        stroke: url(#linear-gradient-9);
      }
    </style>
    <linearGradient
       id="linear-gradient"
       x1="5.1"
       y1="314.24"
       x2="210.05"
       y2="21.55"
       gradientUnits="userSpaceOnUse">
      <stop
         offset="0.2"
         stop-color="#efd650"
         id="stop919" />
      <stop
         offset="0.27"
         stop-color="#f2d468"
         id="stop921" />
      <stop
         offset="0.35"
         stop-color="#e7cd3b"
         id="stop923" />
      <stop
         offset="0.63"
         stop-color="#bb8b1f"
         id="stop925" />
      <stop
         offset="0.71"
         stop-color="#d8ad14"
         id="stop927" />
      <stop
         offset="0.9"
         stop-color="#fbe185"
         id="stop929" />
    </linearGradient>
    <linearGradient
       id="linear-gradient-2"
       x1="-32.43"
       y1="263.73"
       x2="149.93"
       y2="3.3"
       xlink:href="#linear-gradient" />
    <linearGradient
       id="linear-gradient-3"
       x1="51.68"
       y1="322.62"
       x2="234.04"
       y2="62.19"
       xlink:href="#linear-gradient" />
    <linearGradient
       id="linear-gradient-4"
       x1="28.2"
       y1="136.35"
       x2="66.14"
       y2="150.16"
       gradientUnits="userSpaceOnUse">
      <stop
         offset="0.2"
         stop-color="#efd650"
         id="stop934" />
      <stop
         offset="0.27"
         stop-color="#f2d468"
         id="stop936" />
      <stop
         offset="0.48"
         stop-color="#e7cd3b"
         id="stop938" />
      <stop
         offset="0.71"
         stop-color="#d8ad14"
         id="stop940" />
      <stop
         offset="0.9"
         stop-color="#fbe185"
         id="stop942" />
    </linearGradient>
    <linearGradient
       id="linear-gradient-5"
       x1="20.72"
       y1="129.39"
       x2="30.81"
       y2="117.37"
       xlink:href="#linear-gradient" />
    <linearGradient
       id="linear-gradient-6"
       x1="56.48"
       y1="176.25"
       x2="186.42"
       y2="176.25"
       xlink:href="#linear-gradient-4" />
    <linearGradient
       id="linear-gradient-7"
       x1="82.04"
       y1="84.46"
       x2="82.04"
       y2="84.46"
       xlink:href="#linear-gradient" />
    <linearGradient
       id="linear-gradient-8"
       x1="80.74"
       y1="195.74"
       x2="191.29"
       y2="195.74"
       xlink:href="#linear-gradient-4" />
    <linearGradient
       id="linear-gradient-9"
       x1="216"
       y1="145.65"
       x2="216"
       y2="145.65"
       xlink:href="#linear-gradient" />
  </defs>
  <rect
     style="fill:#ffffff;stroke:#000000;stroke-width:5.53322835;stroke-linejoin:bevel;stroke-opacity:1;stroke-miterlimit:4;stroke-dasharray:none"
     id="rect1001"
     width="216"
     height="336"
     x="0"
     y="0" />
  <path
     style="fill:#ff0000;stroke:#ff0000;stroke-width:1.88976;stroke-linejoin:bevel;stroke-miterlimit:4;stroke-dasharray:none;stroke-opacity:1"
     id="path1039"
     d="m 23.283632,71.621144 c 1.739653,0.692817 3.503486,1.327755 5.218958,2.078451 15.61613,6.833667 30.796661,15.777097 44.109623,26.419345 4.768566,3.81195 9.210388,8.01557 13.815582,12.02336 4.474879,4.67392 9.157963,9.15703 13.424637,14.02175 14.116788,16.09551 26.308378,33.90254 36.552638,52.68613 8.8517,16.23022 10.7311,21.79939 17.91986,38.732 6.02253,16.75544 7.33279,19.24876 11.80201,35.91071 2.18013,8.12787 4.34263,17.70833 5.34216,26.17303 0.36865,3.12194 0.38043,6.27574 0.57065,9.41361 0,0 4.59863,-2.39147 4.59863,-2.39147 v 0 c -0.32808,-3.08404 -0.48699,-6.1908 -0.98423,-9.25212 -1.36903,-8.42861 -3.86843,-17.61976 -6.28663,-25.71755 -5.03711,-16.86767 -6.00193,-18.5615 -12.34952,-35.64798 -7.25375,-16.95923 -9.12952,-22.45473 -18.00943,-38.72673 -7.26176,-13.30681 -14.27581,-24.21873 -23.25879,-36.42264 -4.15382,-5.64322 -8.43197,-11.20541 -12.98843,-16.52883 -4.205372,-4.91322 -8.848053,-9.4346 -13.272079,-14.1519 -4.527344,-4.06859 -8.91262,-8.30105 -13.582032,-12.205777 C 71.674534,94.494997 67.30019,91.118004 62.801621,87.923168 59.062219,85.267484 55.125101,82.899479 51.216643,80.499533 43.891452,76.001579 36.342885,71.84474 28.619583,68.071954 c 0,0 -5.335951,3.54919 -5.335951,3.54919 z" />
  <path
     style="fill:#ff0000;stroke:#ff0000;stroke-width:1.88976;stroke-linejoin:bevel;stroke-miterlimit:4;stroke-dasharray:none;stroke-opacity:1"
     id="path1037"
     d="m 197.47031,16.029252 c -2.46097,1.478717 -4.89533,3.002646 -7.3829,4.436151 -3.44809,1.987017 -7.03051,3.741932 -10.42194,5.824181 -13.75013,8.442216 -32.31549,20.33338 -44.89519,30.569143 -7.21046,5.866953 -14.18262,12.063538 -20.66394,18.727199 -6.32934,6.507413 -11.7933,13.803836 -17.689957,20.705755 -11.652415,18.985749 -16.015472,24.149609 -24.066421,44.547869 -2.689775,6.81493 -4.844887,13.84453 -6.72177,20.92659 -2.781323,10.49479 -4.808122,23.93744 -5.871594,34.88603 -0.418757,4.31117 -0.523844,8.64706 -0.785767,12.97059 -0.303932,9.25341 -0.221494,18.54953 1.394664,27.68997 0.210016,1.18778 0.496551,2.36076 0.744827,3.54114 0,0 5.465145,-2.94253 5.465145,-2.94253 v 0 c -0.845714,-3.36182 -1.105275,-4.14497 -1.719357,-7.76165 -1.266917,-7.46162 -1.745837,-15.01826 -1.807566,-22.58256 0.106838,-4.23508 0.04829,-8.47758 0.320513,-12.70526 0.723296,-11.23299 2.241957,-23.48532 4.951112,-34.36559 3.766403,-15.12629 8.860876,-28.69587 16.216348,-42.49969 4.133231,-7.75673 9.1678,-14.99844 13.751699,-22.497658 5.857014,-6.876253 11.267594,-14.159296 17.571044,-20.628758 14.54754,-14.930663 25.95132,-23.020564 43.03449,-34.719245 5.79323,-3.967247 11.68926,-7.792465 17.71598,-11.39513 8.73913,-5.224098 17.96874,-9.59735 26.61296,-14.990781 0,0 -5.75238,2.264234 -5.75238,2.264234 z" />
  <path
     style="fill:#000000;stroke:#000000;stroke-width:0;stroke-linejoin:bevel;stroke-miterlimit:4;stroke-dasharray:none;stroke-opacity:1"
     id="path1009"
     d="m 14.721352,162.04005 c 0.157347,-0.12576 0.307133,-0.26161 0.472042,-0.37728 0.537934,-0.3773 2.114589,-1.24916 1.366356,-0.78653 -1.598138,0.9881 -3.284402,1.83893 -4.823693,2.91642 -0.263512,0.18445 0.624418,-0.16313 0.943884,-0.2006 0.340422,-0.0399 0.685207,-0.0204 1.02781,-0.0307 1.604268,0.0791 3.275254,0.28357 4.762973,0.93555 1.110459,0.48664 1.867945,0.98959 2.911581,1.61618 1.239488,0.83339 2.483018,1.70013 3.475583,2.83105 0.759757,0.86567 1.390629,1.8867 2.012928,2.85067 1.434522,2.71344 1.875309,5.76922 2.231282,8.77796 0.350052,3.57877 0.375245,7.17908 0.362511,10.77174 0.01941,2.98896 0.0041,5.97797 -0.02247,8.96684 -0.09698,1.17255 0.07507,2.36285 -0.01088,3.53413 -0.08778,1.19622 -0.441687,2.37805 -0.765851,3.52444 -0.140321,0.38855 -0.241223,0.79369 -0.420963,1.16566 -0.286861,0.59364 -1.139728,1.79176 -1.516118,2.29733 -1.202946,1.61579 -2.291424,2.59818 -3.839433,3.87176 -0.744947,0.59017 -1.822146,1.47657 -2.639611,2.00537 -0.381854,0.24702 -1.576428,0.90756 -1.187096,0.67251 8.241547,-4.97566 5.488901,-2.60488 3.223683,-2.42356 -0.137364,-0.0388 -0.297647,-0.0311 -0.412093,-0.11644 -0.720288,-0.53693 -0.648173,-2.98284 -0.639454,-3.74574 0.339733,-2.60125 0.926169,-5.16203 1.72998,-7.65682 0.135561,-0.34032 0.273658,-0.67964 0.406682,-1.02095 0.334602,-0.85853 0.356852,-1.09142 0.844467,-1.84974 0.650619,-1.01181 1.51396,-1.90755 2.291521,-2.81897 3.007605,-3.00389 6.04568,-5.97831 9.026112,-9.00951 2.791986,-3.30582 4.727754,-7.19559 6.957923,-10.87522 1.790069,-3.43378 3.825989,-6.73508 5.501109,-10.23003 1.638787,-3.41952 3.740832,-6.58072 5.793237,-9.75878 2.633173,-3.81515 3.669032,-8.36117 4.513312,-12.8453 0.115399,-3.21565 -0.09357,-6.66414 -1.567977,-9.59937 -0.218501,-0.43498 -0.503041,-0.83353 -0.754562,-1.2503 -1.054774,-1.41984 -2.394845,-2.90726 -4.199659,-3.32974 -0.289262,-0.0677 -0.590533,-0.0656 -0.885799,-0.0984 -0.292834,0.0323 -0.591992,0.0282 -0.878503,0.0968 -0.276176,0.0661 -0.55033,0.16132 -0.795841,0.30403 -3.444921,2.00256 -6.198983,2.96333 -8.271166,6.00333 -0.331967,0.48702 -0.595523,1.0173 -0.893285,1.52595 -1.862886,3.6678 -3.249125,7.56936 -4.290396,11.54521 -0.622428,3.80601 -1.541534,7.55226 -2.106605,11.36799 -0.20935,2.17771 -0.519913,4.37761 -0.49784,6.57153 0.01289,1.28113 0.173323,2.47108 0.308699,3.74607 0.183012,1.65899 0.135202,2.59951 0.96872,4.14193 0.470187,0.87009 1.112355,1.63703 1.716414,2.42013 1.716812,2.22564 3.700771,4.18782 5.684663,6.16835 1.543194,1.38928 3.099442,2.88963 5.075034,3.64683 0.940307,0.36039 1.334559,0.37485 2.330669,0.54342 3.499075,-0.0906 6.970255,-0.63427 10.453943,-0.95993 2.226157,-0.16355 4.483398,-0.21429 6.568949,-1.07577 4.009518,-1.82516 6.094849,-3.02702 8.444421,-5.97844 0,0 -6.155948,2.6155 -6.155948,2.6155 v 0 c -0.467243,0.53559 -0.615707,0.72841 -1.116673,1.21709 -1.653533,1.61298 -5.261324,3.22252 4.049452,-2.03952 -0.237285,0.14797 -0.455577,0.33201 -0.711857,0.4439 -0.280509,0.12247 -0.58837,0.169 -0.882879,0.25235 -1.60124,0.45321 -3.266787,0.53339 -4.921839,0.65883 -3.439969,0.31253 -6.858142,0.84504 -10.307847,1.04939 -0.897778,-0.11448 -1.371754,-0.13286 -2.232717,-0.40396 -1.979236,-0.62323 -3.577822,-2.01661 -5.135363,-3.32569 -2.019514,-1.90032 -4.024679,-3.77963 -5.682289,-6.01989 -0.551513,-0.74537 -1.111397,-1.4964 -1.525787,-2.32587 -0.724699,-1.45061 -0.699173,-2.46992 -0.866949,-4.0262 -0.264154,-3.4071 -0.204997,-6.81024 0.300196,-10.19822 0.365099,-2.39716 0.902178,-4.75138 1.321907,-7.13761 0.116038,-0.6597 0.18833,-1.32669 0.308233,-1.9857 0.130896,-0.71942 0.295955,-1.4322 0.443932,-2.14831 1.070784,-3.9379 2.46728,-7.81175 4.43385,-11.39748 0.918594,-1.37229 0.870472,-1.4411 1.958143,-2.56959 0.285519,-0.29624 1.273974,-1.01765 0.90132,-0.84328 -1.687394,0.78956 -3.243954,1.83373 -4.888542,2.70896 -0.2412,0.12836 0.425864,-0.35228 0.674233,-0.46616 0.248835,-0.11408 0.529754,-0.13819 0.794632,-0.20729 0.264395,-0.0174 0.529285,-0.0759 0.793187,-0.0522 1.711913,0.15402 3.015112,1.63992 4.017861,2.87151 0.240177,0.38698 0.507976,0.75812 0.72053,1.16094 1.47838,2.8017 1.70335,6.1005 1.502079,9.19925 -0.835628,4.45122 -1.981585,8.86509 -4.6303,12.62428 -2.065716,3.20903 -4.224825,6.38084 -5.823352,9.8596 -1.689463,3.47192 -3.663085,6.78933 -5.517168,10.17334 -2.161921,3.65993 -4.053781,7.52107 -6.934904,10.6978 -3.020066,3.07168 -6.141694,6.04278 -9.160019,9.11553 -0.812877,0.95273 -1.679392,1.89329 -2.294695,2.99408 -0.5201,0.93046 -0.782266,1.97913 -1.179492,2.9608 -0.74973,2.56051 -1.314868,5.18463 -1.649846,7.83171 -0.0082,1.28853 -0.03956,3.46404 0.95014,4.47398 0.151674,0.15478 0.38206,0.20463 0.573091,0.30695 0.249703,0.0324 0.497927,0.11473 0.749109,0.0972 0.313894,-0.0219 0.640394,-0.0684 0.919441,-0.21385 2.277104,-1.18657 4.489921,-2.4929 6.719414,-3.76669 1.337221,-0.764 2.507467,-1.76866 3.694158,-2.73988 2.438054,-2.12531 4.781441,-4.56264 5.722832,-7.74022 0.645705,-2.40232 0.840849,-4.72842 0.693414,-7.21439 -0.0156,-2.98515 -0.0112,-5.97025 -0.01387,-8.95543 -0.06928,-3.61042 -0.111513,-7.22599 -0.420518,-10.82585 -0.392875,-3.11109 -0.828817,-6.25242 -2.309526,-9.06649 -0.632548,-1.02476 -1.288084,-2.07637 -2.099456,-2.97471 -1.045687,-1.15778 -2.346124,-2.03593 -3.61855,-2.91867 -0.475225,-0.2984 -2.366301,-1.50333 -2.903107,-1.77387 -1.491524,-0.75172 -3.236468,-0.95036 -4.869014,-1.13804 -3.809136,-0.22778 -4.023478,1.01733 -8.788733,3.61711 -0.6860014,0.37426 -1.3156783,0.85328 -1.7905445,1.47808 0,0 6.2034355,-2.71421 6.2034355,-2.71421 z" />
  <path
     style="fill:#000000;stroke:#000000;stroke-width:0;stroke-linejoin:bevel;stroke-miterlimit:4;stroke-dasharray:none;stroke-opacity:1"
     id="path1011"
     d="m 71.253846,167.1612 c 1.011193,0.74866 2.97902,1.43813 4.203398,0.82535 6.672644,-3.33954 5.30713,-2.02599 7.918057,-5.07067 1.489122,-1.94943 2.868454,-4.03907 3.72357,-6.35338 0.438208,-1.18598 0.650935,-2.15913 0.957059,-3.37401 0.268641,-1.95735 1.045259,-4.15784 0.35611,-6.11773 -0.124572,-0.35427 -0.329824,-0.67478 -0.494736,-1.01217 -0.781054,-1.19183 -1.685421,-2.74395 -3.338465,-2.7083 -0.845445,0.0182 -1.647214,0.45736 -2.392165,0.78099 -2.760484,1.75181 -6.137433,3.1333 -8.720772,5.33582 -0.249345,0.21259 -0.455828,0.4718 -0.701473,0.68865 -0.427706,0.37758 -0.891303,0.71279 -1.324439,1.08413 -1.228432,1.28202 0.04548,-0.0997 -1.148991,1.37217 -0.194252,0.23937 -0.437639,0.43851 -0.615185,0.69051 -0.598262,0.84916 -1.032085,1.87334 -1.446081,2.81958 -0.57726,1.33544 -0.575878,2.80308 -0.843394,4.20339 -0.129106,0.67581 -0.356519,1.32913 -0.524123,1.99643 -0.548225,2.27594 -0.860017,4.61578 -0.699364,6.95523 0.484378,2.09881 2.058067,3.23304 3.77341,4.32235 2.055778,1.32045 3.935741,3.00323 6.186899,4.00568 0.402434,0.17921 0.826664,0.3048 1.239996,0.45719 1.948069,0.42095 3.968748,0.77728 5.971499,0.77987 1.247839,0.002 1.914252,-0.14973 3.160371,-0.3376 1.682631,-0.35153 3.52243,-0.58533 5.036375,-1.47314 6.512111,-3.81888 4.963812,-1.88569 6.929289,-4.57939 0.609795,-0.69551 0.764786,-1.60964 1.213702,-2.38999 0,0 -6.13963,2.7748 -6.13963,2.7748 v 0 c -0.346537,0.78316 -0.645634,1.58782 -1.237765,2.23039 -1.891318,1.92611 -0.656825,0.56359 4.416353,-2.20341 0.317231,-0.17302 -0.599922,0.40894 -0.928119,0.56013 -1.267472,0.58388 -2.696752,0.87741 -4.052948,1.1465 -0.901748,0.1542 -2.110557,0.39596 -3.040677,0.42539 -1.95553,0.0619 -3.938139,-0.29356 -5.850837,-0.6397 -0.395123,-0.12877 -0.799872,-0.23109 -1.185369,-0.38631 -2.266505,-0.91266 -4.182297,-2.53765 -6.15363,-3.93258 -1.461638,-1.03229 -3.021707,-1.9433 -3.419498,-3.82841 -0.161854,-2.27998 0.213481,-4.54779 0.775721,-6.75541 0.162259,-0.62456 0.388796,-1.44048 0.499857,-2.08169 0.234851,-1.35591 0.322947,-2.74863 0.929009,-4.01481 0.836944,-1.74146 1.886464,-3.35706 3.36263,-4.63121 0.667289,-0.56426 1.311279,-1.16854 1.994067,-1.71305 1.76002,-1.4036 6.02084,-3.78233 -2.632584,1.23733 0.794231,-0.40164 2.060985,-1.28773 3.012986,-1.06907 1.059989,0.24347 1.550409,1.36881 2.104692,2.16311 0.137855,0.28927 0.315101,0.56288 0.413564,0.86783 0.57914,1.79361 -0.156971,4.01677 -0.393828,5.80388 -0.338084,1.32255 -0.4598,1.9671 -0.975767,3.26092 -0.902517,2.26313 -2.282246,4.31706 -3.857045,6.16238 -2.019956,1.86181 -2.908508,2.51439 3.417288,-1.46952 0.322312,-0.20299 -0.715265,0.28017 -1.09192,0.33692 -0.910201,0.13714 -1.850173,-0.0965 -2.586796,-0.62787 0,0 -5.800301,3.4825 -5.800301,3.4825 z" />
  <path
     style="fill:#000000;stroke:#000000;stroke-width:0;stroke-linejoin:bevel;stroke-miterlimit:4;stroke-dasharray:none;stroke-opacity:1"
     id="path1013"
     d="m 76.945427,107.84974 c 0.615225,2.29847 1.324751,4.57804 2.17889,6.80131 1.45339,4.23625 3.088073,8.40382 4.735066,12.56686 1.233721,3.43283 2.630484,6.79923 4.052573,10.15758 1.933953,4.49204 4.087668,8.88498 6.150477,13.32014 0.933756,2.14566 1.926931,4.29011 3.214766,6.25156 0.624749,0.95154 1.206224,1.66986 1.897846,2.56424 1.482415,1.82902 3.090745,3.55364 5.094625,4.80742 1.31849,0.71546 2.79881,0.94591 4.26282,1.15349 0,0 5.42362,-3.83546 5.42362,-3.83546 v 0 c -1.39238,-0.16029 -2.806,-0.32603 -4.08653,-0.93937 -1.99013,-1.15404 -3.58001,-2.7971 -5.04973,-4.55396 -0.80348,-1.00187 -1.15638,-1.39973 -1.88306,-2.48472 -1.29326,-1.93096 -2.23817,-4.06857 -3.255534,-6.15005 -1.058732,-2.14438 -2.049323,-4.31835 -3.087483,-6.47239 -1.081728,-2.24444 -2.198771,-4.4719 -3.018724,-6.8321 -1.364952,-3.37735 -2.748268,-6.74578 -4.076069,-10.13803 -1.705175,-4.14057 -3.3362,-8.31228 -4.651986,-12.59652 -0.824946,-2.22041 -1.450396,-4.52546 -1.954259,-6.83619 0,0 -5.947308,3.21619 -5.947308,3.21619 z" />
  <path
     style="fill:#000000;stroke:#000000;stroke-width:0;stroke-linejoin:bevel;stroke-miterlimit:4;stroke-dasharray:none;stroke-opacity:1"
     id="path1015"
     d="m 95.034743,96.779223 c -0.04855,2.93068 0.363983,5.811577 0.884322,8.688347 1.362733,4.83475 3.027691,9.58295 4.674695,14.32808 1.38583,3.96131 3.32435,7.68135 5.17775,11.43276 1.05521,2.13584 2.11891,4.46101 3.1221,6.62175 2.16521,4.54194 4.00213,9.25549 6.70719,13.51437 1.94371,2.59835 4.50352,4.64642 7.07481,6.59183 1.64831,1.10211 3.55313,1.61976 5.51822,1.67687 0.19729,-0.0159 0.39825,-0.006 0.59187,-0.0476 0.2108,-0.0447 0.42724,-0.0972 0.61215,-0.20784 2.13632,-1.2785 5.40769,-2.00159 6.53285,-4.47305 0.2147,-0.47159 0.30087,-0.88607 0.4311,-1.3832 0.0393,-0.24277 0.0787,-0.48555 0.118,-0.72832 0,0 -6.04008,2.93394 -6.04008,2.93394 v 0 c -0.0505,0.22286 -0.10102,0.44573 -0.15154,0.66859 -0.17285,0.50163 -0.22506,0.75315 -0.51784,1.2031 -0.11437,0.17577 -0.58145,0.58446 -0.394,0.49045 1.79581,-0.90063 3.49218,-1.98825 5.265,-2.93333 0.17768,-0.0947 -0.29221,0.28585 -0.47132,0.37785 -0.16809,0.0863 -0.36524,0.0971 -0.54787,0.14567 -1.88608,0.10133 -3.72125,-0.27855 -5.35208,-1.27166 -2.58454,-1.8196 -5.12833,-3.78302 -7.02587,-6.34262 -2.78591,-4.15722 -4.80028,-8.76458 -6.95906,-13.26471 -2.78979,-5.99004 -5.87737,-11.86504 -8.08735,-18.10465 -1.6922,-4.69368 -3.32297,-9.43038 -4.55498,-14.26624 -0.45264,-2.893324 -0.83376,-5.791149 -0.57304,-8.725426 0,0 -6.035027,3.074999 -6.035027,3.074999 z" />
  <path
     style="fill:#000000;stroke:#000000;stroke-width:0;stroke-linejoin:bevel;stroke-miterlimit:4;stroke-dasharray:none;stroke-opacity:1"
     id="path1017"
     d="m 132.4919,125.8886 c -1.33856,2.04097 -1.6737,4.46872 -1.97163,6.83916 -0.13922,1.73065 -0.28136,3.52312 -0.0853,5.25833 0.0681,0.6024 0.37078,1.7502 0.51647,2.34108 0.58456,2.35173 1.35983,4.63515 2.22666,6.89469 0.99834,1.81604 2.10461,3.52315 3.70019,4.86141 1.48614,1.06312 3.24284,0.86857 4.91793,0.45408 3.21917,-1.0801 6.51145,-2.68079 8.83073,-5.197 0.53428,-0.57965 0.94181,-1.17628 1.40558,-1.8113 1.47916,-2.16223 1.92689,-4.71862 2.16905,-7.27255 0.16792,-3.24369 0.15369,-6.49268 0.16219,-9.73961 0.0623,-1.68743 0.0483,-3.3505 -0.40493,-4.99006 -0.12203,-0.44143 -0.54889,-1.54745 -0.7161,-1.99155 -0.5423,-1.14113 -0.96208,-2.50615 -2.10444,-3.21087 -0.21695,-0.13384 -0.4612,-0.21731 -0.6918,-0.32596 -0.75961,-0.23242 -1.64003,-0.29397 -2.37187,0.10327 -7.10931,3.85887 -4.83745,2.12637 -7.85261,5.19942 -1.15289,1.46962 -2.173,3.08519 -2.87128,4.8229 0,0 6.07622,-2.78836 6.07622,-2.78836 v 0 c 0.77365,-1.64572 1.71371,-3.23998 2.94653,-4.58535 0.24248,-0.24163 0.47544,-0.4932 0.72744,-0.72489 0.23821,-0.21901 1.03,-0.77345 0.74191,-0.62608 -14.15218,7.23965 -4.72482,2.40227 -3.62836,2.27348 0.21577,-0.0253 0.4325,0.0417 0.64875,0.0625 1.64492,0.53898 1.84646,1.57851 2.55677,3.03795 0.17636,0.46085 0.55535,1.41676 0.68357,1.89139 0.42775,1.58346 0.42703,3.2072 0.40919,4.83418 0.0152,3.23048 0.0473,6.46896 -0.22556,9.69071 -0.30611,2.4793 -0.79506,4.92852 -2.35209,6.96228 -0.63795,0.80554 -0.74697,0.99903 -1.48919,1.71323 -0.22105,0.2127 -0.97016,0.73989 -0.69623,0.60181 1.69629,-0.85503 3.31694,-1.85263 4.98411,-2.76315 0.26981,-0.14736 -0.51259,0.34414 -0.79153,0.47338 -0.26748,0.12392 -0.55887,0.1878 -0.83831,0.28171 -1.15821,0.35194 -2.67515,0.79989 -3.88984,0.41709 -0.24063,-0.0758 -0.44685,-0.23437 -0.67028,-0.35156 -1.59774,-1.21233 -2.58522,-2.80633 -3.56178,-4.53631 -0.87728,-2.22551 -1.64079,-4.48138 -2.19253,-6.81292 -0.15336,-0.64186 -0.39411,-1.55582 -0.46446,-2.21758 -0.18094,-1.70189 -0.0496,-3.4479 0.10761,-5.14339 0.33669,-2.34267 0.77304,-4.68787 2.23072,-6.62584 0,0 -6.17155,2.70025 -6.17155,2.70025 z" />
  <path
     style="fill:#000000;stroke:#000000;stroke-width:0;stroke-linejoin:bevel;stroke-miterlimit:4;stroke-dasharray:none;stroke-opacity:1"
     id="path1019"
     d="m 57.79524,236.87242 c 0.01855,-2.70622 -0.03078,-5.41387 0.298633,-8.10531 0.248034,-2.02653 0.381405,-2.46299 0.794449,-4.45148 0.858082,-3.19861 2.368269,-6.24506 4.692147,-8.64232 0.347452,-0.35843 0.748837,-0.66031 1.123256,-0.99047 3.573704,-2.24042 -2.399806,1.27932 -3.463486,2.11509 -0.28312,0.22246 0.718017,-0.11463 1.076846,-0.0849 1.220156,0.10122 2.044409,0.81869 2.892611,1.60649 1.550944,1.41436 2.343872,2.9883 2.920746,4.96351 0.972495,2.29149 1.601675,4.67182 1.999482,7.12299 0.46668,2.19634 1.486515,4.19326 2.112664,6.34432 0.141264,0.42877 0.267984,0.86262 0.423793,1.28632 0.940648,2.558 0.221852,0.31371 1.134207,2.88242 0.549857,1.54811 0.94661,3.12414 1.312097,4.72331 0.814618,2.56589 1.142202,5.26704 1.981801,7.81932 1.154834,2.62416 2.578117,5.11054 3.800311,7.70574 1.270524,2.52333 2.412809,5.1146 3.511913,7.7176 0.581496,1.08996 1.215915,2.7571 2.685442,2.83235 0.234946,0.012 0.466248,-0.0632 0.699371,-0.0948 2.868933,-1.1929 5.839429,-2.57234 8.04592,-4.78364 0.696344,-0.69786 1.221511,-1.56883 1.818914,-2.34832 1.33713,-1.87484 1.981323,-4.01833 2.607213,-6.19727 0.542,-2.24022 0.65303,-4.54583 0.71846,-6.83984 -0.0686,-1.3686 0.18887,-2.77298 0.0588,-4.13919 -0.0444,-0.46587 -0.33237,-1.6693 -0.4367,-2.12925 -0.28278,-0.63858 -0.44129,-1.57727 -1.091751,-1.99572 -0.143588,-0.0924 -0.334155,-0.26172 -0.481323,-0.17517 -6.00738,3.53324 -5.506854,1.65807 -6.04419,4.56921 -0.0057,0.24505 -0.0471,0.49189 -0.01701,0.73515 0.12525,1.01262 0.532761,2.032 0.841444,2.99691 0.336179,1.05086 0.315702,1.02486 0.596301,2.07643 0.523497,1.26652 0.849038,2.61224 1.420508,3.85999 6.13e-4,10e-4 1.142982,2.21061 1.152809,2.22961 0.943321,1.55237 1.500801,3.36539 2.690368,4.76766 0.213371,0.25153 0.471664,0.46119 0.707504,0.69179 1.32901,1.12288 2.98372,1.39984 4.66079,1.53303 5.51711,-0.87116 7.81963,-3.77905 9.23395,-8.19818 0.69752,-2.23876 0.81666,-4.57956 0.8759,-6.90563 0.0326,-2.37154 0.0269,-4.74326 0.002,-7.11481 -0.052,-3.19467 -0.049,-6.38953 -0.0345,-9.58448 0.22431,-2.7895 0.51252,-5.57665 0.84081,-8.35599 0.0423,-0.45 0.054,-0.90395 0.12704,-1.34999 0.14714,-0.89802 0.43602,-1.76747 0.61923,-2.65883 0.30707,-1.49399 0.53817,-3.00574 0.80987,-4.50647 0.31249,-2.7551 1.22524,-5.3605 2.09592,-7.97345 0.13222,-0.32672 0.28471,-0.64594 0.39664,-0.98015 0.12224,-0.365 0.19358,-0.74532 0.30465,-1.11388 0.33744,-1.11972 0.7692,-2.31273 1.3284,-3.34275 0.1865,-0.34352 0.43155,-0.65185 0.64733,-0.97778 1.14638,-2.05294 2.47088,-3.98796 3.87532,-5.87198 0,0 -6.10138,2.6405 -6.10138,2.6405 v 0 c -1.35843,1.92144 -2.68824,3.85538 -3.83747,5.91183 -1.17321,2.06412 -1.87719,4.30052 -2.60309,6.55166 -0.8434,2.63807 -1.70659,5.27114 -2.02086,8.03935 -0.26259,1.49675 -0.50407,2.99487 -0.83111,4.47946 -0.20881,0.94786 -0.44677,1.78003 -0.5947,2.73902 -0.0691,0.44821 -0.0993,0.90156 -0.14899,1.35234 -0.30619,2.79385 -0.56402,5.59591 -0.75975,8.39933 0.0181,3.20279 0.0248,6.40545 -0.008,9.60817 -0.009,2.36751 0.0259,4.73542 -0.0288,7.10254 -0.0851,2.26657 -0.22724,4.54656 -0.94371,6.71804 -0.41901,1.13824 -0.84408,2.22716 -1.59138,3.20021 -0.19232,0.25041 -0.92549,0.83262 -0.63957,0.69867 1.20082,-0.56253 7.24246,-4.01461 4.43185,-2.41097 -1.5495,-0.0722 -3.12889,-0.18905 -4.42565,-1.13664 -0.21626,-0.19179 -0.4547,-0.36116 -0.64877,-0.57537 -1.21426,-1.34023 -1.70857,-3.16506 -2.6799,-4.66045 -0.16973,-0.32851 -0.94932,-1.82309 -1.10129,-2.17367 -0.53693,-1.23873 -0.83904,-2.56993 -1.37767,-3.80841 -0.22792,-0.81782 -0.354156,-1.29476 -0.608922,-2.11 -0.279941,-0.89581 -0.647087,-1.83714 -0.663021,-2.79177 -0.0035,-0.2122 0.05792,-0.42049 0.08688,-0.63073 0.932498,-2.54108 0.150086,-0.0643 -5.326866,2.58307 -0.137924,0.0667 -0.05333,-0.34516 0.05172,-0.45666 0.106866,-0.11342 0.36388,0.12314 0.625174,0.67106 0.13117,0.27507 0.21692,0.56957 0.32538,0.85435 0.16712,0.7742 0.292633,1.22002 0.348454,2.01049 0.09606,1.36025 -0.06267,2.73738 -0.02667,4.09862 -0.08844,2.25192 -0.212638,4.51878 -0.809178,6.70454 -0.600505,2.13581 -1.352403,4.19121 -2.721396,5.97409 -0.590225,0.77299 -1.143707,1.56428 -1.887522,2.2023 -0.239345,0.2053 -1.035299,0.7155 -0.756828,0.56755 2.508891,-1.33291 6.903294,-3.96356 4.232629,-2.3693 -0.219763,0.10093 -0.786165,0.40814 -1.074885,0.37501 -0.850264,-0.0976 -1.503718,-1.66912 -1.858633,-2.26171 -1.141041,-2.59172 -2.337877,-5.15969 -3.575691,-7.7061 -1.208215,-2.57409 -2.611358,-5.04374 -3.706484,-7.66624 -0.831665,-2.52518 -1.188043,-5.1947 -2.033969,-7.72233 -0.33019,-1.42091 -0.41856,-1.904 -0.838167,-3.30025 -0.575935,-1.91643 -1.417599,-3.73507 -1.997292,-5.65008 -0.310598,-1.09812 -0.395585,-1.48794 -0.787792,-2.53898 -0.463215,-1.24132 -1.025815,-2.44094 -1.264276,-3.75764 -0.458518,-2.46507 -1.101645,-4.87091 -1.994113,-7.21715 -0.663095,-2.12983 -1.467187,-3.68716 -3.141397,-5.22921 -0.936518,-0.92756 -1.821966,-1.73432 -3.158606,-2.03006 -0.402358,-0.089 -0.854781,-0.27804 -1.231311,-0.11058 -4.959562,2.20572 -5.117594,2.40907 -7.838855,4.4729 -0.352278,0.35264 -0.727874,0.68343 -1.056834,1.05792 -2.225404,2.53338 -3.684963,5.62588 -4.471603,8.88688 -0.414788,2.12294 -0.502721,2.34369 -0.743822,4.50305 -0.306298,2.74329 -0.257135,5.50573 -0.580564,8.24683 0,0 6.027694,-3.00275 6.027694,-3.00275 z" />
  <path
     style="fill:#000000;stroke:#000000;stroke-width:0;stroke-linejoin:bevel;stroke-miterlimit:4;stroke-dasharray:none;stroke-opacity:1"
     id="path1021"
     d="m 131.71635,230.19856 c -11.49698,6.44208 -4.02507,1.72283 -7.28282,4.28649 -0.68724,0.54083 -1.1148,0.71349 -1.6473,1.47866 -0.46236,0.66439 -1.39552,2.74446 -1.69199,3.37577 -1.50457,3.52171 -2.71994,7.1726 -3.36407,10.95136 -0.28322,1.71163 -0.32888,3.40197 0.16446,5.08149 0.15068,0.51297 0.65115,1.69943 0.85934,2.20738 1.04674,2.17893 2.14307,2.92752 4.4274,3.541 5.75293,0.93127 6.90964,-0.85011 12.56093,-4.09979 1.71849,-1.50097 2.69102,-3.37211 3.21566,-5.56015 0.42974,-2.39143 0.85429,-4.773 1.05255,-7.19725 0.17823,-2.58347 0.26443,-5.17252 0.1424,-7.75955 -0.19228,-1.65971 -0.0181,-3.46946 -0.58915,-5.07198 -0.27471,-0.77098 -0.54434,-1.06126 -1.00314,-1.70637 -0.98653,-0.98814 -2.42767,-1.69498 -3.85761,-1.69891 -0.27986,-7.7e-4 -0.55605,0.0641 -0.83407,0.0962 -2.89728,0.98937 -5.82412,2.4194 -7.72155,4.84413 0,0 6.15845,-2.59295 6.15845,-2.59295 v 0 c 0.20782,-0.20422 0.88461,-0.74193 0.62348,-0.61266 -1.72059,0.85177 -7.17169,4.04454 -4.39253,2.42004 0.23568,-0.0843 0.46017,-0.21156 0.70703,-0.25296 1.17544,-0.19715 2.70207,0.45395 3.56479,1.20296 0.44729,0.58689 0.63524,0.74507 0.89545,1.46554 0.56113,1.55361 0.42614,3.30123 0.5936,4.91456 0.0468,2.56691 -0.0113,5.13817 -0.20296,7.69892 -0.24031,2.39595 -0.64531,4.76213 -1.14642,7.1174 -0.60054,2.02736 -1.64034,3.85435 -3.40227,5.09912 9.15195,-5.06778 5.01844,-2.38346 2.67271,-1.99249 -1.18321,0.1972 -2.37092,0.0346 -3.54812,-0.10736 -2.14769,-0.45285 -3.10475,-0.9641 -4.12235,-2.99117 -0.22782,-0.54915 -0.65132,-1.52509 -0.81373,-2.09764 -0.45331,-1.59797 -0.32956,-3.22204 -0.0781,-4.84214 0.63124,-3.70614 1.72347,-7.32073 3.33246,-10.72557 0.6002,-1.14559 1.07846,-2.24109 1.92025,-3.23156 1.62997,-1.91784 7.78742,-4.75973 -2.56702,0.84661 0,0 5.37427,-4.08712 5.37427,-4.08712 z" />
  <path
     style="fill:#000000;stroke:#000000;stroke-width:0;stroke-linejoin:bevel;stroke-miterlimit:4;stroke-dasharray:none;stroke-opacity:1"
     id="path1023"
     d="m 147.93736,236.33267 c 0.007,0.20867 0.0345,0.41773 0.02,0.626 -0.0645,0.93296 -0.22196,1.85719 -0.32474,2.78671 -0.20857,1.88642 -0.40173,3.7737 -0.58839,5.66241 -0.0164,0.18786 -0.22025,2.56106 -0.26173,2.90923 -0.33093,2.77761 -2.11004,3.49481 5.94477,-3.08011 0.30897,-0.2522 0.006,-0.79793 0.0283,-1.19616 0.0318,-0.57914 0.0883,-1.15666 0.13247,-1.73499 0.30204,-2.52574 0.40755,-5.07545 0.70609,-7.601 0.10926,-0.92432 0.41334,-2.70675 0.56345,-3.61925 0.56993,-2.19806 0.43049,-4.60841 1.25644,-6.74585 0.13046,-0.33763 0.31916,-0.64976 0.47874,-0.97464 0.52724,-0.7824 0.52638,-0.90066 1.23318,-1.502 0.21347,-0.18161 0.92679,-0.62883 0.68353,-0.48964 -9.38092,5.36804 -5.88708,2.95977 -3.62753,2.53439 0.2601,0.001 0.52019,0.003 0.78028,0.004 0,0 5.44153,-3.90628 5.44153,-3.90628 v 0 c -0.27544,-0.0293 -0.55087,-0.0586 -0.82631,-0.0878 -0.57423,-0.002 -1.0322,-0.077 -1.5669,0.21745 -3.44575,1.8972 -6.41796,2.74367 -8.15785,5.99383 -0.14595,0.35746 -0.31746,0.70551 -0.43784,1.07236 -0.71125,2.16761 -0.56401,4.54202 -1.10729,6.74676 -0.1308,0.80709 -0.47538,2.86735 -0.56414,3.67974 -0.2755,2.52166 -0.31911,5.07201 -0.69848,7.58466 -0.07,0.6017 -0.14785,1.20254 -0.20989,1.8051 -0.0418,0.40596 -0.50389,1.28885 -0.10161,1.2201 6.65551,-1.13755 5.85033,-0.22392 5.96518,-2.88017 0.0487,-1.12739 0.0988,-1.68323 0.18379,-2.85626 0.16532,-1.88771 0.34772,-3.77013 0.61544,-5.64673 0.14053,-0.98505 0.34602,-1.96118 0.4544,-2.95028 0.0235,-0.2143 0.0134,-0.43096 0.02,-0.64644 0,0 -6.03502,3.075 -6.03502,3.075 z" />
  <path
     style="fill:#000000;stroke:#000000;stroke-width:0;stroke-linejoin:bevel;stroke-miterlimit:4;stroke-dasharray:none;stroke-opacity:1"
     id="path1025"
     d="m 158.89133,191.7438 c 0.18963,4.49092 0.13654,8.98843 0.25842,13.48171 0.45974,6.06405 1.43819,12.06225 2.62929,18.01932 0.73545,3.5812 1.91999,7.06904 3.38629,10.41462 0.97795,2.32874 2.04988,4.6237 3.51294,6.688 1.20752,1.42082 2.83446,2.05309 4.63983,2.2586 0.94617,0.12991 1.77868,-0.17172 2.64297,-0.50022 0,0 5.24267,-4.14196 5.24267,-4.14196 v 0 c -0.79644,0.37897 -1.52117,0.84537 -2.4421,0.74428 -1.6483,-0.0345 -3.1888,-0.51164 -4.33793,-1.75471 -1.46235,-2.00409 -2.59617,-4.21312 -3.55759,-6.4987 -1.41806,-3.31163 -2.63392,-6.72332 -3.42969,-10.24142 -1.29293,-5.88616 -2.39961,-11.82301 -2.6766,-17.85897 -0.04,-4.55843 -0.0324,-9.12162 0.14932,-13.67678 0,0 -6.01782,3.06623 -6.01782,3.06623 z" />
  <path
     style="fill:#000000;stroke:#000000;stroke-width:0;stroke-linejoin:bevel;stroke-miterlimit:4;stroke-dasharray:none;stroke-opacity:1"
     id="path1027"
     d="m 188.54083,218.18997 c -0.74445,-0.4582 -2.29637,-1.51641 -3.22268,-0.99839 -2.15502,1.20512 -4.23386,2.54168 -6.35079,3.81252 -1.26529,1.51838 -1.21811,3.55324 -1.55777,5.39837 -0.0741,0.40239 -0.19439,0.79489 -0.29159,1.19233 -0.33069,1.5061 -0.83526,2.99581 -0.97554,4.54004 -0.0613,0.67448 -2.4e-4,1.15092 0.0498,1.81217 0.11357,1.9315 1.44492,3.23966 3.01071,4.18593 0.54444,0.24624 0.97422,0.47665 1.56468,0.60131 2.90229,0.61274 7.55483,-3.28762 8.65552,-3.91834 1.80256,-1.46082 1.90754,-3.87602 2.1774,-6.01171 0.0515,-0.59562 0.0865,-1.19291 0.15453,-1.78687 0.25865,-2.257 0.65751,-4.49706 0.89789,-6.75704 0.94904,-8.92282 -0.51425,3.74163 0.54108,-5.23817 0.64704,-7.84658 0.38175,-15.749 -0.19788,-23.5918 -0.16618,-3.08689 -0.6008,-6.14562 -1.10644,-9.19167 -0.25533,-1.53818 -0.42314,-2.78477 -0.90336,-4.2619 -0.18423,-0.5667 -0.44755,-1.10456 -0.67132,-1.65685 -0.67441,-1.40423 -1.38091,-3.18144 -2.93435,-3.85362 -0.22145,-0.0958 -0.49474,-0.25367 -0.70948,-0.14363 -2.17995,1.11708 -4.21445,2.49774 -6.32167,3.7466 -0.15547,0.56556 -0.47054,1.62066 -0.52426,2.19898 -0.20079,2.16166 0.37142,4.7889 0.67075,6.94706 0.27422,3.31993 0.9631,6.55821 1.95242,9.73356 0.62173,2.23992 1.55356,4.37452 2.14236,6.62358 0.38218,1.45982 0.702,2.93547 1.0832,4.39554 0.17773,0.71124 0.36272,1.4207 0.5332,2.13371 0.42369,1.77203 0.44759,2.18323 0.98031,3.94673 0.64389,2.13151 1.48433,4.20498 2.28642,6.27971 1.61333,3.93072 3.45603,7.79827 5.61234,11.46211 0.83735,1.43225 1.81744,2.76868 2.81388,4.09157 0,0 5.66374,-3.37898 5.66374,-3.37898 v 0 c -1.0365,-1.26001 -2.02113,-2.557 -2.85856,-3.96179 -2.12597,-3.63971 -4.03295,-7.43193 -5.61169,-11.3399 -0.77975,-2.06119 -1.5927,-4.12429 -2.21462,-6.24079 -0.25832,-0.87911 -0.77029,-3.02906 -0.99788,-3.92969 -0.1795,-0.71029 -0.36588,-1.41883 -0.54882,-2.12825 -0.55099,-2.15752 -0.94859,-4.37807 -1.59302,-6.50961 -0.46546,-1.5396 -1.16735,-3.01519 -1.55935,-4.58126 -0.93908,-3.15069 -1.58106,-6.35886 -1.92242,-9.63096 -0.31694,-2.36263 -1.06014,-5.56634 -0.15171,-7.85478 0.11519,-0.29017 0.3025,-0.54622 0.45376,-0.81933 -1.77599,0.92616 -3.57132,1.81613 -5.32795,2.77849 -0.16641,0.0912 0.35808,-0.18101 0.54655,-0.15905 0.25541,0.0298 0.49814,0.15732 0.70842,0.30531 1.04832,0.73779 1.57454,1.9863 2.12972,3.08234 0.22374,0.51915 0.48594,1.02337 0.67124,1.55746 0.44458,1.28144 0.73637,2.83193 0.98519,4.14916 0.56543,2.99333 1.02777,6.00841 1.25831,9.04801 0.63152,7.84062 0.94443,15.75293 -0.0474,23.58017 -0.29641,2.54246 -0.53922,5.09127 -0.89546,7.62635 -0.20854,1.48408 -0.47186,2.96018 -0.6752,4.44498 -0.0812,0.59307 -0.13941,1.18906 -0.20911,1.78359 -0.33725,2.08788 -0.57753,4.32552 -2.5407,5.53245 12.02408,-6.7846 4.92981,-2.18248 3.13068,-2.28736 -0.4066,-0.0237 -1.11599,-0.32396 -1.48498,-0.46313 -1.47254,-0.77089 -2.60531,-1.86685 -2.67045,-3.62285 -0.14883,-2.12009 0.44217,-4.09696 0.9434,-6.14034 0.45081,-2.13961 0.42142,-4.61886 2.10316,-6.23019 -1.72821,0.94456 -3.45387,1.8938 -5.18462,2.83369 -0.16713,0.0908 0.31302,-0.2264 0.49356,-0.2862 0.17886,-0.0592 0.37388,-0.0785 0.56169,-0.0633 0.67549,0.0546 1.24463,0.47461 1.78221,0.83957 0,0 5.70287,-3.62561 5.70287,-3.62561 z" />
  <circle
     id="path1029"
     style="fill:#000000;stroke:#000000"
     cx="273.63419"
     cy="175.12589"
     r="0.43048909" />
</svg>
