<?xml version="1.0" encoding="UTF-8" standalone="no"?>
<svg
   xmlns:dc="http://purl.org/dc/elements/1.1/"
   xmlns:cc="http://creativecommons.org/ns#"
   xmlns:rdf="http://www.w3.org/1999/02/22-rdf-syntax-ns#"
   xmlns:svg="http://www.w3.org/2000/svg"
   xmlns="http://www.w3.org/2000/svg"
   xmlns:sodipodi="http://sodipodi.sourceforge.net/DTD/sodipodi-0.dtd"
   xmlns:inkscape="http://www.inkscape.org/namespaces/inkscape"
   id="Layer_1"
   data-name="Layer 1"
   viewBox="0 0 50 50"
   version="1.1"
   sodipodi:docname="dragonhead3.svg"
   inkscape:version="1.0.1 (3bc2e813f5, 2020-09-07)"
   width="50"
   height="50">
  <metadata
     id="metadata876">
    <rdf:RDF>
      <cc:Work
         rdf:about="">
        <dc:format>image/svg+xml</dc:format>
        <dc:type
           rdf:resource="http://purl.org/dc/dcmitype/StillImage" />
        <dc:title></dc:title>
      </cc:Work>
    </rdf:RDF>
  </metadata>
  <sodipodi:namedview
     pagecolor="#ffffff"
     bordercolor="#666666"
     borderopacity="1"
     objecttolerance="10"
     gridtolerance="10"
     guidetolerance="10"
     inkscape:pageopacity="0"
     inkscape:pageshadow="2"
     inkscape:window-width="1920"
     inkscape:window-height="1009"
     id="namedview874"
     showgrid="false"
     inkscape:zoom="13.964424"
     inkscape:cx="24.455"
     inkscape:cy="21.229602"
     inkscape:window-x="-8"
     inkscape:window-y="-8"
     inkscape:window-maximized="1"
     inkscape:current-layer="Layer_1" />
  <defs
     id="defs865">
    <style
       id="style863">
            .cls-1 {
            fill: #00AD11
            }
    </style>
    <clipPath
       clipPathUnits="userSpaceOnUse"
       id="clipPath912">
      <circle
         style="fill:none;stroke:#ff00ff;stroke-width:0.389906;stroke-linejoin:bevel;stroke-opacity:1"
         id="circle914"
         cx="27.999722"
         cy="22.127657"
         r="21.108547" />
    </clipPath>
    <clipPath
       clipPathUnits="userSpaceOnUse"
       id="clipPath916">
      <circle
         style="fill:none;stroke:#ff00ff;stroke-width:0.389906;stroke-linejoin:bevel;stroke-opacity:1"
         id="circle918"
         cx="27.999722"
         cy="22.127657"
         r="21.108547" />
    </clipPath>
  </defs>
  <path
     class="cls-1"
     d="m 46.823294,25.854758 -0.18,-1.28 c 0,-0.13 -0.43,-2.88 -2.33,-3.94 0.78,-0.09 1,-0.45 1,-0.73 v -0.26 l -0.24,0.09 a 3.08,3.08 0 0 1 -1.72,0 h 0.05 a 0.85,0.85 0 0 0 0.37,-0.78 v -0.21 h -0.19 c 0,0 -4.42,0.61 -5.66,-1.58 l -0.3,-0.53 v 0.61 a 2.8,2.8 0 0 0 1.75,2.38 4.93,4.93 0 0 1 2.83,3.94 6.62,6.62 0 0 1 -1.92,4.72 q -0.61,0.73 -1.32,1.47 -0.31,0.33 -0.66,0.66 l -0.15,0.13 v 0 a 13.42,13.42 0 0 0 -1.23,-8.49 l -0.69,-1.54 0.29,1.42 c 0,0.08 1.54,7.64 -2.47,11.95 -1,1 -1.85,1.92 -2.64,2.7 -2.2,2.19 -3.78,3.77 -4.57,6.1 l -0.47,1.36 0.73,-1.19 c 0.56,-0.91 4.2,-5.43 7.3,-6.63 a 3.58,3.58 0 0 0 0,2.36 1.84,1.84 0 0 0 1.05,1 c -0.14,0.32 -0.62,1.2 -0.73,1.37 a 12.9,12.9 0 0 1 -5,4.12 57.93,57.93 0 0 1 -6.88,3 l -1.78,0.69 a 13,13 0 0 0 -4.39,2.59 6.6,6.6 0 0 0 -2,4.59 3.76,3.76 0 0 0 1.24,2.8 2.07,2.07 0 0 0 1.35,0.5 h 0.35 a 1.79,1.79 0 0 0 1.29,-0.92 l 0.25,-0.47 -0.47,0.25 a 1.85,1.85 0 0 1 -1.89,0.12 2.25,2.25 0 0 1 -0.74,-2.78 6.88,6.88 0 0 1 2,-2.94 c 2.32,-2.12 5.32,-3.21 8.23,-4.27 2.91,-1.06 6.09,-2.22 8.48,-4.49 a 9,9 0 0 0 2.29,-3.48 c 0.41,1.48 1.16,6.08 -4.28,8.47 l -1.4,0.62 1.51,-0.32 c 0,0 5.12,-1.13 6.56,-5.66 l 1.86,2 -0.69,-1.22 a 7.86,7.86 0 0 1 -0.65,-5.3 2.31,2.31 0 0 0 1.15,1.41 l 0.51,0.23 -0.31,-0.46 a 3.47,3.47 0 0 1 -0.5,-2.64 2.42,2.42 0 0 0 1.74,1.47 l 0.47,0.14 -0.3,-0.39 c 0,0 -1.67,-2.15 -0.58,-3.45 a 2.13,2.13 0 0 0 2.37,-1.72 l 0.11,-0.46 -0.36,0.3 c -0.47,0.38 -1.24,0.88 -1.54,0.81 a 3,3 0 0 0 1.85,-2.55 l 0.07,-0.58 -0.36,0.46 c 0,0 -1.58,2 -3,1.55 a 0.32,0.32 0 0 1 -0.24,-0.23 c -0.18,-0.74 1.38,-2.61 2.25,-3.55 a 3.06,3.06 0 0 1 -0.4,1.25 l -0.27,0.49 0.49,-0.28 a 3.44,3.44 0 0 0 1.56,-2.21 4.87,4.87 0 0 1 0.35,1 l 0.15,0.62 0.2,-0.62 c 0,-0.18 1,-3.89 0.34,-6 a 5.31,5.31 0 0 1 0.66,1.21 z"
     id="path869"
     clip-path="url(#clipPath916)"
     transform="matrix(1.1945523,0,0,1.1945523,-8.6639925,-2.5817916)" />
  <path
     class="cls-1"
     d="m 44.633294,17.614758 a 3.65,3.65 0 0 1 -1.14,-0.07 c 0.67,-0.1 1.7,-0.41 1.85,-1.35 l 0.03,-0.45 -0.34,0.31 c 0,0 -0.65,0.58 -1.23,0.25 l 0.92,-0.67 -1,-0.07 0.58,-0.41 -0.68,-0.42 a 2.39,2.39 0 0 0 0.68,-2.2 l -0.05,-0.46 -0.24,0.4 c 0,0 -1,1.69 -2.22,1.27 -0.2,-0.07 -0.32,-0.16 -0.32,-0.23 0,-0.22 0.61,-0.63 1.2,-0.88 l 0.41,-0.18 -0.43,-0.12 a 2.68,2.68 0 0 0 -1.67,0.12 c -0.07,-0.42 -0.15,-1.37 0.5,-1.74 l 0.4,-0.22 -0.42,-0.05 a 3.07,3.07 0 0 0 -0.91,0 2.8,2.8 0 0 0 -1.58,-2.6399996 l -0.28,-0.16 v 0.31 a 2.6,2.6 0 0 1 -0.54,1.82 2.64,2.64 0 0 1 -1.92,0.8099996 c 0.17,-0.8299996 1,-4.0799996 3.73,-4.6999996 l 0.59,-0.13 -0.58,-0.18 c 0,0 -1.2,-0.33 -3.51,1.37 a 15.14,15.14 0 0 0 -1.29,1.09 c -0.28,0.26 -0.56,0.52 -0.86,0.77 a 3.36,3.36 0 0 0 -0.43,-2.88 l -0.23,-0.39 -0.06,0.45 a 9.56,9.56 0 0 1 -0.38,1.73 4.51,4.51 0 0 1 -2,2.11 l -0.48,0.3399996 a 8.2,8.2 0 0 0 0.52,-6.8299996 l -0.3,-0.89 v 1 a 9.21,9.21 0 0 1 -3.4,6.9999996 6.26,6.26 0 0 0 0.82,-1.9999996 l 0.28,-1.35 -0.61,1.25 a 8,8 0 0 1 -0.83,1.27 v 0 a 12,12 0 0 1 -1.45,1.5399996 24.85,24.85 0 0 0 -3.1,3.3 1,1 0 0 1 -0.07,-0.3 c 0,-0.46 0.21,-1.3 1.47,-2.68 l 0.27,-0.28 h -0.39 c -0.09,0 -2.2,0.16 -4.08,4.76 a 6.63,6.63 0 0 1 -3.25,3.52 6.78,6.78 0 0 1 -1.71,0.58 h -0.13 a 6.41,6.41 0 0 1 -1.05,0.13 h -0.4 a 4.79,4.79 0 0 0 -2.82,0.54 c -1.6199997,1 -2.3399997,1.94 -2.4899997,3.33 -0.05,0.51 -0.07,0.92 -0.09,1.24 a 2.14,2.14 0 0 1 -0.17,1 l -0.11,0.12 0.13,0.1 a 0.56,0.56 0 0 0 0.7,0 l 0.13,-0.12 a 0.81,0.81 0 0 1 0.6,-0.33 c 0.28,0 0.6,0.26 0.9999997,0.73 l 0.2,0.25 0.25,-0.91 0.37,0.46 0.29,-0.65 a 4.28,4.28 0 0 0 2.25,0.25 12.36,12.36 0 0 0 4,-1.58 l 0.93,-0.49 a 9.79,9.79 0 0 1 -3.37,3.51 10.45,10.45 0 0 1 -0.95,0.56 l -0.21,0.12 a 3,3 0 0 1 -1.74,0.55 0.65,0.65 0 0 1 -0.4,-0.22 l -0.09,-0.08 h -0.09 c -0.21,0.06 -0.39,0.62 -0.39,0.63 a 1.62,1.62 0 0 0 0.06,0.62 1.47,1.47 0 0 0 1.07,1 3,3 0 0 0 1.74,-0.25 18.38,18.38 0 0 0 2.9,-1.56 12.63,12.63 0 0 1 4,-1.87 c 0.56,-0.13 1.14,-0.22 1.69,-0.3 a 16.32,16.32 0 0 0 3.07,-0.69 10.09,10.09 0 0 0 1.59,-0.77 20.15,20.15 0 0 1 0.29,3.77 7.11,7.11 0 0 1 -1,3.46 c -2.41,4.1 -6.29,6.94 -10,9.69 l -1.93,1.42 a 18.1,18.1 0 0 0 -5.8999997,6.58 9.54,9.54 0 0 0 -0.61,6.48 7.51,7.51 0 0 0 4.1499997,4.87 6.21,6.21 0 0 0 2.35,0.45 5.92,5.92 0 0 0 3.94,-1.44 l 0.88,-0.8 -1.02,0.59 c -2,1 -4,1 -5.29,0.08 a 5.59,5.59 0 0 1 -2.43,-4.75 c 0,-3.33 2.44,-6.82 4.84,-8.54 4.87,-3.5 10.39,-7.47 14.36,-12.82 l 0.28,-0.38 a 12.5,12.5 0 0 0 1.81,-2.93 5.25,5.25 0 0 1 -0.72,2.24 l -0.7,1.1 0.91,-0.87 c 0.15,-0.15 3.79,-3.72 3.45,-7.76 a 17.06,17.06 0 0 0 -2.15,-6.93 c 0,0 -1,-2.08 0,-3.32 a 8.09,8.09 0 0 1 3.18,-2 5.09,5.09 0 0 0 2.08,-0.85 5.3,5.3 0 0 0 0.09,0.79 v 0.12 a 2.43,2.43 0 0 0 1.86,2.18 3.85,3.85 0 0 0 1.13,-0.05 h 0.24 c -0.12,0.44 -0.73,0.83 -1.05,1 l -0.15,0.1 0.12,0.14 c 0,0 2,2.29 4.34,1 l 0.69,-0.39 z m -26,3.72 a 8.37,8.37 0 0 1 -1.8,0.15 c 0.1,0 0.3,-0.15 0.39,-0.2 0.33,-0.18 0.67,-0.37 1,-0.58 1.37,-0.86 3,-2 3.55,-3.58 a 3.65,3.65 0 0 1 -3.14,4.21 z m 14.58,-7.84 a 25.45,25.45 0 0 1 -3.35,1.79 4.35,4.35 0 0 1 1.79,-0.11 4.44,4.44 0 0 0 -2.4,1.6 c 0.25,-0.31 1,0.41 1.16,0.76 -0.2,0 -0.52,-0.12 -0.69,0 -0.17,0.12 0.13,0.81 0.18,1 a 4.17,4.17 0 0 1 0.13,1.53 c -0.15,-0.21 -0.29,-0.43 -0.43,-0.64 a 5.76,5.76 0 0 1 -0.56,2.38 3.29,3.29 0 0 0 -0.26,-1.23 4.26,4.26 0 0 1 -0.67,2.3 1.53,1.53 0 0 0 0.13,-0.64 c 0,-0.17 -0.14,-0.52 -0.1,-0.65 -0.13,0.44 -0.83,0.91 -1.07,1.29 a 8.16,8.16 0 0 0 0.74,-4.66 3.93,3.93 0 0 1 0.37,-2.74 4.83,4.83 0 0 1 2.69,-1.86 9.71,9.71 0 0 0 3.8,-2 c 0.03,0.83 -1.08,1.47 -1.46,1.88 z"
     id="path871"
     clip-path="url(#clipPath912)"
     transform="matrix(1.1945523,0,0,1.1945523,-8.6639925,-2.5817916)" />
</svg>