<?xml version="1.0" encoding="UTF-8"?>
<svg id="Layer_1" data-name="Layer 1" xmlns="http://www.w3.org/2000/svg" viewBox="0 0 202.23 166.55">
  <defs>
    <style>
      .cls-1 {
        fill: none;
        stroke: #000;
        stroke-miterlimit: 10;
        stroke-width: 2px;
      }
    </style>
  </defs>
  <path d="M202.06,56.68c-3.82-6.79-8.33-13.14-13.45-18.96-.5-.57-1.38-.61-1.94-.09l-56.57,52.39c-.53,.49-.57,1.3-.11,1.86,.06,.08,.12,.16,.18,.24l-19.31,13.67,15.01-18.08c.09,.08,.19,.14,.27,.22,.53,.45,1.31,.46,1.82-.02l56.67-52.48c.56-.52,.59-1.39,.06-1.94-5.41-5.55-11.4-10.53-17.88-14.86-.63-.42-1.49-.23-1.9,.41l-41.2,65.43c-.38,.61-.21,1.4,.37,1.82,.08,.06,.15,.12,.22,.17l-14.98,18.05,9.74-21.18c.09,.05,.19,.08,.29,.13,.63,.31,1.38,.11,1.76-.48L162.38,17.43c.4-.64,.2-1.5-.45-1.88-6.62-3.94-13.69-7.22-21.12-9.73-.72-.24-1.5,.16-1.72,.89l-22.92,74.05c-.21,.68,.15,1.4,.82,1.66,.08,.03,.16,.07,.25,.11l-9.73,21.15,3.91-22.87c.09,.02,.19,.03,.29,.05,.69,.14,1.38-.25,1.58-.92L136.22,5.82c.22-.73-.19-1.5-.92-1.71-7.35-2.06-15.02-3.38-22.92-3.89-.76-.05-1.41,.54-1.44,1.3l-2.97,77.51c-.03,.71,.5,1.31,1.21,1.39,.09,.01,.17,.03,.26,.04l-3.91,22.85-2.14-23.09c.09,0,.18-.02,.27-.02,.71-.03,1.29-.59,1.31-1.3L107.95,1.42c.03-.76-.57-1.4-1.33-1.41-7.92-.1-15.67,.63-23.15,2.12-.74,.15-1.22,.89-1.05,1.63l17.19,75.65c.16,.69,.81,1.12,1.51,1.04,.1-.01,.19-.01,.29-.02l2.14,23.1-8.08-21.84c.09-.03,.17-.06,.25-.09,.68-.21,1.1-.89,.94-1.59L79.49,4.42c-.17-.74-.92-1.2-1.65-1.02-7.6,1.93-14.9,4.66-21.8,8.08-.68,.34-.94,1.17-.59,1.85l36.12,68.51c.33,.62,1.07,.87,1.72,.61,.1-.04,.2-.07,.3-.1l8.09,21.87-13.55-19.14c.08-.05,.15-.11,.23-.16,.61-.38,.84-1.15,.51-1.79L52.79,14.73c-.35-.67-1.2-.93-1.86-.55-6.79,3.82-13.14,8.33-18.96,13.45-.57,.5-.61,1.38-.09,1.94l52.48,56.67c.47,.51,1.25,.57,1.81,.15,.09-.07,.19-.13,.29-.19l13.58,19.18-18.2-15.11c.07-.07,.13-.15,.2-.22,.5-.52,.52-1.34,.03-1.87L29.67,31.6c-.52-.56-1.39-.59-1.94-.06-5.55,5.41-10.53,11.4-14.86,17.88-.42,.63-.23,1.49,.41,1.9l65.2,41.05c.59,.37,1.35,.22,1.79-.32,.08-.1,.17-.19,.25-.28l18.24,15.14-21.68-9.97c.05-.1,.1-.2,.15-.29,.34-.63,.16-1.42-.45-1.81L11.68,53.85c-.64-.4-1.5-.2-1.88,.45-3.94,6.62-7.22,13.69-9.73,21.12-.24,.72,.16,1.5,.89,1.72l73.44,22.73c.67,.21,1.37-.14,1.65-.78,.05-.12,.11-.23,.16-.35l27.92,12.84,1.17,.48,.06,.08,.07-.05,.12,.1,.07-.08,.83-.75,24.92-17.65c.07,.1,.15,.2,.22,.3,.39,.58,1.14,.78,1.76,.46l68.15-35.94c.67-.35,.93-1.2,.55-1.86Z"/>
  <path class="cls-1" d="M105.13,110.3s.72,11.54,7.22,11.54"/>
  <circle cx="109.35" cy="121.84" r="4"/>
  <path d="M106.41,121.84c1.33,.53,2.88,3.26,3.68,4.34,3.33,4.53,5.34,10,5.73,15.61,.19,2.72-.21,5.42-.02,8.15s.81,5.62,1.8,8.28c1.17,3.16,2.81,6.15,5.44,8.32,2.6-1.06,6.29-1.67,8.44-3.53-.33,.28-3.6-3.97-3.87-4.31-1.88-2.37-3.4-4.7-3.86-7.79-.44-2.96-.35-5.99-1.03-8.92-.53-2.26-1.29-4.48-2.26-6.59-1.91-4.13-4.74-7.81-8.43-10.49-1.73-1.26-3.62-2.28-5.61-3.07Z"/>
  <path d="M146.33,142.79c-3.35,.6-6.98,.11-9.78-1.82-4.36-3-5.93-8.73-9.65-12.49-2.2-2.22-5.1-3.68-8.14-4.37s-6.23-.63-9.3-.08c2.42,.61,4.86,1.23,7.13,2.26s4.41,2.49,5.86,4.52c1.68,2.35,2.34,5.26,3.6,7.86,2,4.14,5.57,7.47,9.8,9.27s9.07,2.07,13.5,.85"/>
</svg>