<svg xmlns="http://www.w3.org/2000/svg" viewBox="0 0 199.83 190.22">
  <defs>
    <style>
      .cls-1 {
        stroke: #000;
        stroke-miterlimit: 10;
        stroke-width: 2px;
      }
    </style>
  </defs>
  <path class="cls-1" d="M147.41,56.47l24.94,67.64a.71.71,0,0,0,.63.45l72,2.82a.7.7,0,0,1,.4,1.24l-56.62,44.62a.7.7,0,0,0-.23.73l19.57,69.39a.69.69,0,0,1-1,.76l-59.94-40.06a.71.71,0,0,0-.77,0L86.44,244.12a.69.69,0,0,1-1-.76L105,174a.69.69,0,0,0-.24-.73L48.11,128.62a.69.69,0,0,1,.4-1.24l72-2.82a.68.68,0,0,0,.62-.45l25-67.64A.69.69,0,0,1,147.41,56.47Z" transform="translate(-46.84 -55.02)"/>
</svg>
