<?xml version="1.0" encoding="UTF-8"?>
<svg id="Layer_1" data-name="Layer 1" xmlns="http://www.w3.org/2000/svg" viewBox="0 0 107 192.07">
  <defs>
    <style>
      .cls-1 {
        stroke: #000;
        stroke-miterlimit: 10;
        stroke-width: 3px;
      }
    </style>
  </defs>
  <path d="M107,66.5c0,25.13-23.95,45.5-53.5,45.5S.33,91.63,0,66.5,23.96,21,53.5,21s53.5,20.37,53.5,45.5Z"/>
  <path d="M33.88,16h39.25c.76,0,1.38,.62,1.38,1.38v8.62H32.5v-8.62c0-.76,.62-1.38,1.38-1.38Z"/>
  <line class="cls-1" x1="53.5" x2="53.5" y2="16"/>
  <path d="M77,105H30v8.62c0,.76,.69,1.38,1.54,1.38l16.41,3.74c3.64,.83,7.46,.83,11.1,0l16.41-3.74c.85,0,1.54-.62,1.54-1.38v-8.62Z"/>
  <line class="cls-1" x1="53.5" y1="117" x2="53.5" y2="148"/>
  <circle class="cls-1" cx="53.5" cy="123.5" r="3"/>
  <circle class="cls-1" cx="53.5" cy="133" r="4.5"/>
  <path class="cls-1" d="M54.71,190.22c-.1-.05,1.3-12.8,1.26-14.31-.13-4.72-.67-9.43-1.47-14.09-3.37-19.66,0-24.63,0-24.63-1.65,2.44,.19,6.76,.87,9.23,2.07,7.53,3.43,15.28,3.89,23.08,.11,1.91,.68,21.05-1.75,21.05-1.03,0-1.92,.07-2.79-.34Z"/>
</svg>