<svg id="Layer_1" data-name="Layer 1" xmlns="http://www.w3.org/2000/svg" viewBox="0 0 199.83 190.22">
  <path d="M246.59,127.55a1.66,1.66,0,0,0-1.54-1.16l-71.83-2.82L148.34,56.12a1.66,1.66,0,0,0-1.58-1.1h0a1.68,1.68,0,0,0-1.59,1.1L120.3,123.57l-71.83,2.82a1.65,1.65,0,0,0-1.54,1.16,1.68,1.68,0,0,0,.56,1.85l56.45,44.5L84.43,243.08a1.7,1.7,0,0,0,1.62,2.16A1.7,1.7,0,0,0,87,245L146.76,205,206.53,245a1.69,1.69,0,0,0,2.56-1.87L189.58,173.9,246,129.4A1.68,1.68,0,0,0,246.59,127.55Zm-67.31,43,15.77,55.9-48.29-32.27L98.47,226.45l15.77-55.89-45.62-36,58-2.28,20.1-54.49,20.1,54.49,58,2.28Z" transform="translate(-46.84 -55.02)"/>
</svg>
