<svg id="Layer_1" data-name="Layer 1" xmlns="http://www.w3.org/2000/svg" viewBox="0 0 65.68 65.68">
  <defs>
    <style>
      .cls-1 {
        fill: none;
        stroke: #000;
        stroke-miterlimit: 10;
        stroke-width: 10px;
      }
    </style>
  </defs>
  <path class="cls-1" d="M154.27,132.13" transform="translate(-121.42 -99.29)"/>
  <path d="M154.27,99.29a32.84,32.84,0,1,0,32.84,32.84A32.84,32.84,0,0,0,154.27,99.29Zm23,28.09-9.95,7.89a2.18,2.18,0,0,0-.74,2.29L170,149.85a2.69,2.69,0,0,1-.32,2.19,2.66,2.66,0,0,1-3.68.81l-10.5-7.13a2.15,2.15,0,0,0-2.38,0l-10.5,7.13a2.63,2.63,0,0,1-2.29.34,2.66,2.66,0,0,1-1.76-3.34L142,137.56a2.18,2.18,0,0,0-.73-2.29l-10-7.89a2.7,2.7,0,0,1,1.55-4.81l12.64-.47a2.11,2.11,0,0,0,1.92-1.41l4.35-12a2.66,2.66,0,0,1,5,0l4.35,12A2.11,2.11,0,0,0,163,122.1l12.64.47a2.7,2.7,0,0,1,1.55,4.81Z" transform="translate(-121.42 -99.29)"/>
</svg>
