<svg id="Layer_1" data-name="Layer 1" xmlns="http://www.w3.org/2000/svg" viewBox="0 0 300 300">
  <path d="M164.21,119.28l-12.64-.47a2.14,2.14,0,0,1-1.92-1.41l-4.35-12a2.66,2.66,0,0,0-5,0l-4.35,12a2.11,2.11,0,0,1-1.92,1.41l-12.64.47a2.7,2.7,0,0,0-1.55,4.81l10,7.89a2.17,2.17,0,0,1,.73,2.29l-3.46,12.29a2.67,2.67,0,0,0,4.05,3l10.5-7.13a2.15,2.15,0,0,1,2.38,0l10.5,7.13a2.67,2.67,0,0,0,4-3l-3.47-12.29a2.19,2.19,0,0,1,.74-2.29l9.95-7.89A2.7,2.7,0,0,0,164.21,119.28Zm-11.12,9.54a6,6,0,0,0-2.06,6.39l2.19,7.76a.31.31,0,0,1-.47.34l-6.5-4.41a6.51,6.51,0,0,0-2.24-1,6,6,0,0,0-4.54.9l-6.63,4.5a.31.31,0,0,1-.47-.34l2.19-7.76a6,6,0,0,0-2.06-6.39l-6.28-5a.32.32,0,0,1,.18-.56l8-.29a6,6,0,0,0,5.38-4l2.75-7.57a.31.31,0,0,1,.58,0l2.74,7.57a6,6,0,0,0,5.38,4l8,.29a.31.31,0,0,1,.18.56Z"/>
</svg>
