<svg id="Layer_1" data-name="Layer 1" xmlns="http://www.w3.org/2000/svg" viewBox="0 0 47.96 46.37">
  <defs>
    <style>
      .cls-1 {
        fill: #fff;
      }

      .cls-2 {
        fill: none;
        stroke: #000;
        stroke-miterlimit: 10;
        stroke-width: 10px;
      }
    </style>
  </defs>
  <path class="cls-1" d="M25,3.79l4.85,13.29a1,1,0,0,0,.91.66l14.14.51a1,1,0,0,1,.58,1.8L34.31,28.77A1,1,0,0,0,34,29.84l3.89,13.6a1,1,0,0,1-1.54,1.11L24.58,36.66a1,1,0,0,0-1.13,0L11.72,44.55a1,1,0,0,1-1.54-1.11l3.89-13.6a1,1,0,0,0-.35-1.07L2.58,20.05a1,1,0,0,1,.59-1.8l14.13-.51a1,1,0,0,0,.92-.66L23.06,3.79A1,1,0,0,1,25,3.79Z" transform="translate(-0.01 -0.02)"/>
  <path d="M45.4,15.65l-12.64-.47a2.14,2.14,0,0,1-1.92-1.41l-4.35-12a2.66,2.66,0,0,0-5,0l-4.35,12a2.11,2.11,0,0,1-1.92,1.41l-12.64.47A2.7,2.7,0,0,0,1,20.46l10,7.89a2.18,2.18,0,0,1,.73,2.29L8.3,42.93a2.67,2.67,0,0,0,4,3l10.5-7.13a2.15,2.15,0,0,1,2.38,0l10.5,7.13a2.67,2.67,0,0,0,4-3L36.26,30.64A2.2,2.2,0,0,1,37,28.35l10-7.89a2.7,2.7,0,0,0-1.55-4.81ZM34.28,25.19a6,6,0,0,0-2.06,6.39l2.19,7.76a.31.31,0,0,1-.22.38.32.32,0,0,1-.25,0l-6.5-4.41a6.64,6.64,0,0,0-2.24-1,6,6,0,0,0-4.54.9L14,39.67a.31.31,0,0,1-.47-.34l2.19-7.76a6,6,0,0,0-2.06-6.39l-6.28-5a.32.32,0,0,1,0-.45.33.33,0,0,1,.21-.11l8-.29a6,6,0,0,0,5.38-4l2.75-7.57a.31.31,0,0,1,.4-.18.32.32,0,0,1,.18.18L27,15.33a6,6,0,0,0,5.38,4l8,.29a.31.31,0,0,1,.18.56Z" transform="translate(-0.01 -0.02)"/>
  <path class="cls-2" d="M4.55,1" transform="translate(-0.01 -0.02)"/>
</svg>
