<svg id="Layer_1" data-name="Layer 1" xmlns="http://www.w3.org/2000/svg" viewBox="0 0 39.2 59.66">
  <defs>
    <style>
      .cls-1 {
        fill: #00ad11;
      }
    </style>
  </defs>
  <path class="cls-1" d="M51.6,24.41l-.18-1.28c0-.13-.44-2.88-2.33-3.94.78-.09,1-.45,1-.73l0-.26-.24.09a3,3,0,0,1-1.71,0l0,0a.85.85,0,0,0,.38-.78V17.3l-.19,0s-4.43.61-5.66-1.58l-.3-.53v.61a2.8,2.8,0,0,0,1.69,2.35A4.89,4.89,0,0,1,47,22.12a6.58,6.58,0,0,1-1.92,4.72c-.4.49-.84,1-1.31,1.47L43.1,29,43,29.1l-.05,0a13.42,13.42,0,0,0-1.23-8.49L41,19.11l.3,1.42c0,.08,1.54,7.64-2.47,11.95-1,1-1.85,1.92-2.64,2.7-2.2,2.19-3.79,3.77-4.57,6.1l-.45,1.32.73-1.19c.57-.91,4.2-5.43,7.31-6.63a3.58,3.58,0,0,0,0,2.36,1.84,1.84,0,0,0,1.05,1c-.14.32-.63,1.2-.73,1.37a12.93,12.93,0,0,1-5,4.12,57.93,57.93,0,0,1-6.88,3l-1.78.69a13.05,13.05,0,0,0-4.38,2.59,6.51,6.51,0,0,0-2,4.59,3.76,3.76,0,0,0,1.24,2.8,2,2,0,0,0,1.34.5,2,2,0,0,0,.35,0,1.79,1.79,0,0,0,1.3-.92l.24-.47-.46.25a1.86,1.86,0,0,1-1.89.12A2.23,2.23,0,0,1,20.83,54a7,7,0,0,1,2-2.94c2.33-2.13,5.34-3.22,8.25-4.28s6.11-2.22,8.48-4.49a9.14,9.14,0,0,0,2.29-3.48c.4,1.48,1.16,6.08-4.28,8.47l-1.41.62,1.5-.32c.06,0,5.13-1.13,6.57-5.66l1.86,2-.69-1.22a7.83,7.83,0,0,1-.66-5.3,2.38,2.38,0,0,0,1.15,1.41l.51.23-.31-.46A3.49,3.49,0,0,1,45.58,36a2.38,2.38,0,0,0,1.73,1.47l.48.14-.31-.39s-1.67-2.15-.57-3.45A2.13,2.13,0,0,0,49.29,32l.11-.46-.37.3c-.46.38-1.23.88-1.53.81a3,3,0,0,0,1.84-2.57l.07-.58-.35.46s-1.59,2-3,1.55a.32.32,0,0,1-.24-.23c-.18-.74,1.38-2.61,2.25-3.55A3,3,0,0,1,47.71,29l-.27.49.49-.28A3.47,3.47,0,0,0,49.45,27a5.52,5.52,0,0,1,.35,1l.14.62.17-.61c0-.18,1-3.89.33-6a5,5,0,0,1,.67,1.22Z" transform="translate(-12.4 -0.99)"/>
  <path class="cls-1" d="M49.4,16.17a3.59,3.59,0,0,1-1.13-.07c.67-.1,1.69-.41,1.84-1.35l.07-.45-.33.31s-.65.58-1.23.25l.91-.67-1-.07.57-.41-.67-.42a2.44,2.44,0,0,0,.68-2.2l-.06-.46-.24.4s-1,1.69-2.21,1.27c-.21-.07-.33-.16-.33-.23,0-.22.62-.63,1.2-.88l.42-.18-.43-.12a2.68,2.68,0,0,0-1.67.12c-.07-.42-.15-1.37.5-1.74l.4-.22L46.23,9a3,3,0,0,0-.9,0,2.82,2.82,0,0,0-1.58-2.64l-.28-.16,0,.31A2.6,2.6,0,0,1,43,8.33a2.66,2.66,0,0,1-1.92.81c.16-.83,1-4.08,3.72-4.7l.6-.13-.59-.18c-.05,0-1.24-.33-3.55,1.37A13.6,13.6,0,0,0,40,6.59c-.28.26-.57.52-.87.77a3.32,3.32,0,0,0-.42-2.88l-.23-.39-.07.45A10.46,10.46,0,0,1,38,6.27a4.53,4.53,0,0,1-2,2.11l-.48.34a8.15,8.15,0,0,0,.53-6.83L35.72,1l0,1a9.21,9.21,0,0,1-3.4,7A6.26,6.26,0,0,0,33.12,7l.28-1.35L32.82,6.9A8.71,8.71,0,0,1,32,8.17l0,0a12,12,0,0,1-1.45,1.54,24.85,24.85,0,0,0-3.1,3.3,1,1,0,0,1-.07-.3c0-.46.21-1.3,1.48-2.68l.26-.28-.38,0c-.09,0-2.21.16-4.08,4.76a6.72,6.72,0,0,1-5,4.1l-.12,0a6.41,6.41,0,0,1-1.05.13h-.41a4.79,4.79,0,0,0-2.82.54c-1.61,1-2.33,1.94-2.48,3.33-.06.51-.08.92-.09,1.24a2,2,0,0,1-.18,1l-.1.12.13.1a.56.56,0,0,0,.7,0l.12-.12a.83.83,0,0,1,.61-.33c.27,0,.59.26.95.73l.19.25.26-.91.36.46.3-.65a4.25,4.25,0,0,0,2.25.25,12.45,12.45,0,0,0,4-1.58c.3-.17.61-.33.92-.49a9.76,9.76,0,0,1-3.36,3.51c-.28.18-.58.36-.95.56l-.21.12a3,3,0,0,1-1.75.55.63.63,0,0,1-.39-.22l-.09-.08-.1,0c-.2.06-.38.62-.38.63A1.47,1.47,0,0,0,17,29.44a3,3,0,0,0,1.74-.25,18,18,0,0,0,2.9-1.56,12.79,12.79,0,0,1,4-1.87c.56-.13,1.13-.22,1.69-.3a16.22,16.22,0,0,0,3.06-.69,9.76,9.76,0,0,0,1.76-.84,20.14,20.14,0,0,1,.3,3.77,7,7,0,0,1-1,3.46c-2.4,4.1-6.28,6.94-10,9.69-.64.47-1.29.94-1.92,1.42a18.1,18.1,0,0,0-5.9,6.58A9.48,9.48,0,0,0,13,55.33a7.48,7.48,0,0,0,4.22,4.87,6.14,6.14,0,0,0,2.35.45,5.91,5.91,0,0,0,3.93-1.44l.89-.8L23.3,59c-2,1-4,1-5.29.08a5.63,5.63,0,0,1-2.44-4.75c0-3.33,2.45-6.82,4.84-8.54,4.88-3.5,10.4-7.47,14.36-12.82l.28-.38a12.53,12.53,0,0,0,1.82-2.93,5.39,5.39,0,0,1-.76,2.29L35.44,33l.91-.87c.16-.15,3.8-3.72,3.46-7.76a17,17,0,0,0-2.16-6.93s-1-2.08,0-3.32a8.08,8.08,0,0,1,3.17-2,5,5,0,0,0,2.08-.85A5.48,5.48,0,0,0,43,12v.12a2.44,2.44,0,0,0,1.87,2.18A3.89,3.89,0,0,0,46,14.26l.23,0c-.11.44-.73.83-1,1l-.16.1.12.14s2,2.29,4.35,1l.68-.39Zm-26,3.72a8.42,8.42,0,0,1-1.8.15c.1,0,.3-.15.38-.2.34-.18.67-.37,1-.58,1.37-.86,3-2,3.55-3.58A3.66,3.66,0,0,1,23.41,19.89Z" transform="translate(-12.4 -0.99)"/>
</svg>